HIERARCHY
ROOT Hips
{
	OFFSET 0.00000 0.00000 0.00000
	CHANNELS 6 Xposition Yposition Zposition Zrotation Yrotation Xrotation 
	JOINT LHipJoint
	{
		OFFSET 0 0 0
		CHANNELS 3 Zrotation Yrotation Xrotation
		JOINT LeftUpLeg
		{
			OFFSET 1.58895 -1.83665 0.71753
			CHANNELS 3 Zrotation Yrotation Xrotation
			JOINT LeftLeg
			{
				OFFSET 2.50528 -6.88321 0.00000
				CHANNELS 3 Zrotation Yrotation Xrotation
				JOINT LeftFoot
				{
					OFFSET 2.63244 -7.23257 0.00000
					CHANNELS 3 Zrotation Yrotation Xrotation
					JOINT LeftToeBase
					{
						OFFSET 0.23691 -0.65090 1.72750
						CHANNELS 3 Zrotation Yrotation Xrotation
						End Site
						{
							OFFSET 0.00000 -0.00000 0.92561
						}
					}
				}
			}
		}
	}
	JOINT RHipJoint
	{
		OFFSET 0 0 0
		CHANNELS 3 Zrotation Yrotation Xrotation
		JOINT RightUpLeg
		{
			OFFSET -1.51435 -1.83665 0.71753
			CHANNELS 3 Zrotation Yrotation Xrotation
			JOINT RightLeg
			{
				OFFSET -2.54551 -6.99375 0.00000
				CHANNELS 3 Zrotation Yrotation Xrotation
				JOINT RightFoot
				{
					OFFSET -2.66027 -7.30903 0.00000
					CHANNELS 3 Zrotation Yrotation Xrotation
					JOINT RightToeBase
					{
						OFFSET -0.22981 -0.63138 2.03959
						CHANNELS 3 Zrotation Yrotation Xrotation
						End Site
						{
							OFFSET -0.00000 -0.00000 1.07060
						}
					}
				}
			}
		}
	}
	JOINT LowerBack
	{
		OFFSET 0 0 0
		CHANNELS 3 Zrotation Yrotation Xrotation
		JOINT Spine
		{
			OFFSET -0.02651 1.86275 -0.11152
			CHANNELS 3 Zrotation Yrotation Xrotation
			JOINT Spine1
			{
				OFFSET 0.01019 1.86224 0.04087
				CHANNELS 3 Zrotation Yrotation Xrotation
				JOINT Neck
				{
					OFFSET 0 0 0
					CHANNELS 3 Zrotation Yrotation Xrotation
					JOINT Neck1
					{
						OFFSET -0.01926 1.80512 0.08867
						CHANNELS 3 Zrotation Yrotation Xrotation
						JOINT Head
						{
							OFFSET 0.05516 1.76451 -0.38475
							CHANNELS 3 Zrotation Yrotation Xrotation
							End Site
							{
								OFFSET 0.01592 1.82587 -0.14001
							}
						}
					}
				}
				JOINT LeftShoulder
				{
					OFFSET 0 0 0
					CHANNELS 3 Zrotation Yrotation Xrotation
					JOINT LeftArm
					{
						OFFSET 3.47116 1.51376 0.14491
						CHANNELS 3 Zrotation Yrotation Xrotation
						JOINT LeftForeArm
						{
							OFFSET 4.78095 -0.00000 0.00000
							CHANNELS 3 Zrotation Yrotation Xrotation
							JOINT LeftHand
							{
								OFFSET 3.58615 -0.00000 -0.00000
								CHANNELS 3 Zrotation Yrotation Xrotation
								JOINT LeftFingerBase
								{
									OFFSET 0 0 0
									CHANNELS 3 Zrotation Yrotation Xrotation
									JOINT LeftHandIndex1
									{
										OFFSET 0.65981 -0.00000 0.00000
										CHANNELS 3 Zrotation Yrotation Xrotation
										End Site
										{
											OFFSET 0.53196 -0.00000 0.00000
										}
									}
								}
								JOINT LThumb
								{
									OFFSET 0 0 0
									CHANNELS 3 Zrotation Yrotation Xrotation
									End Site
									{
										OFFSET 0.54008 -0.00000 0.54008
									}
								}
							}
						}
					}
				}
				JOINT RightShoulder
				{
					OFFSET 0 0 0
					CHANNELS 3 Zrotation Yrotation Xrotation
					JOINT RightArm
					{
						OFFSET -3.31725 1.61216 0.35156
						CHANNELS 3 Zrotation Yrotation Xrotation
						JOINT RightForeArm
						{
							OFFSET -4.48913 -0.00000 0.00000
							CHANNELS 3 Zrotation Yrotation Xrotation
							JOINT RightHand
							{
								OFFSET -3.70510 -0.00000 0.00000
								CHANNELS 3 Zrotation Yrotation Xrotation
								JOINT RightFingerBase
								{
									OFFSET 0 0 0
									CHANNELS 3 Zrotation Yrotation Xrotation
									JOINT RightHandIndex1
									{
										OFFSET -0.44914 -0.00000 0.00000
										CHANNELS 3 Zrotation Yrotation Xrotation
										End Site
										{
											OFFSET -0.36211 -0.00000 0.00000
										}
									}
								}
								JOINT RThumb
								{
									OFFSET 0 0 0
									CHANNELS 3 Zrotation Yrotation Xrotation
									End Site
									{
										OFFSET -0.36763 -0.00000 0.36763
									}
								}
							}
						}
					}
				}
			}
		}
	}
}
MOTION
Frames: 5
Frame Time: .0083333
-0.3379 18.7988 5.3764 0.7892 18.8906 7.6557 0.0000 0.0000 0.0000 -13.5551 -15.7568 -13.3593 1.5834 7.9383 22.5268 0.6563 -3.9639 -14.4736 8.5659 -16.5201 -54.5764 0.0000 0.0000 0.0000 0.0000 0.0000 0.0000 0.0000 0.0000 0.0000 -0.0000 -0.0000 0.0000 -0.0000 -0.0000 0.0000 4.7590 5.2831 12.3507 2.6784 7.8822 0.1636 -1.2035 3.7469 -6.4678 -10.3397 -12.5983 -8.4282 6.1019 -16.1741 5.8583 2.2817 -7.9480 4.4243 0.0000 -0.0000 0.0000 -84.6736 22.5357 38.9154 53.4253 -54.2869 -28.9330 -0.0000 0.0000 -16.3454 7.5448 -23.1050 -2.9753 -7.1250 0.0000 -0.0000 -13.3703 7.2070 11.9251 0.0000 -0.0000 0.0000 52.3250 1.7067 18.9922 -116.5510 57.1611 -82.7747 0.0000 -0.0000 -50.0018 -3.1896 -48.7121 2.3977 7.1250 -0.0000 -0.0000 59.0692 -70.7510 -40.4496
-0.3370 18.7984 5.3662 0.9133 18.2856 7.6311 0.0000 0.0000 0.0000 -13.7560 -15.5149 -13.2318 1.5790 7.9278 22.4949 0.6783 -3.6504 -14.7489 8.5533 -16.5115 -54.5319 0.0000 0.0000 0.0000 0.0000 0.0000 0.0000 0.0000 0.0000 0.0000 -0.0000 -0.0000 0.0000 -0.0000 -0.0000 0.0000 4.5788 5.3882 12.3898 2.5838 7.9879 0.2153 -1.2226 3.8038 -6.4397 -10.3998 -12.6067 -8.7065 6.1095 -16.1523 5.9083 2.2752 -7.9319 4.4878 0.0000 0.0000 0.0000 -84.9731 22.1352 38.7042 52.4284 -53.9292 -28.1255 -0.0000 0.0000 -16.2329 7.6250 -23.0956 -3.0061 -7.1250 0.0000 -0.0000 -13.3209 7.2089 11.8779 0.0000 0.0000 0.0000 54.1676 3.5844 18.9388 -108.4458 58.6745 -75.9035 0.0000 -0.0000 -48.1201 -1.8615 -48.9704 1.4045 7.1250 -0.0000 -0.0000 60.7181 -70.4182 -41.4405
-0.3368 18.7964 5.3535 0.9132 17.3788 7.3887 0.0000 0.0000 0.0000 -13.8981 -15.0182 -12.9244 1.5736 7.9149 22.4558 0.7042 -3.2782 -15.0800 8.5395 -16.5021 -54.4836 0.0000 0.0000 0.0000 0.0000 0.0000 0.0000 0.0000 0.0000 0.0000 -0.0000 -0.0000 0.0000 -0.0000 -0.0000 0.0000 4.4578 5.5810 12.6120 2.5241 8.2299 0.3019 -1.2773 3.9236 -6.4685 -10.4735 -12.5827 -8.9565 6.1023 -16.0910 6.0681 2.2685 -7.8980 4.5776 0.0000 -0.0000 0.0000 -85.0820 21.6774 38.8257 51.2873 -53.5017 -27.2056 -0.0000 0.0000 -16.1728 7.8389 -23.1160 -3.0939 -7.1250 0.0000 -0.0000 -13.1894 7.1691 11.7644 0.0000 -0.0000 0.0000 53.3862 6.6267 20.3782 -96.7044 59.8295 -65.8028 0.0000 -0.0000 -48.4993 -8.9721 -46.3447 6.5167 7.1250 -0.0000 -0.0000 48.4033 -71.4520 -32.7050
-0.3330 18.7940 5.3454 0.9177 16.4118 7.1535 0.0000 0.0000 0.0000 -14.0549 -14.4677 -12.6167 1.5695 7.9050 22.4258 0.7307 -2.9324 -15.4214 8.5233 -16.4910 -54.4265 0.0000 0.0000 0.0000 0.0000 0.0000 0.0000 0.0000 0.0000 0.0000 -0.0000 -0.0000 0.0000 -0.0000 -0.0000 0.0000 4.4178 5.8060 12.7267 2.4285 8.5152 0.4054 -1.4074 4.0652 -6.4002 -10.5603 -12.5526 -9.2457 6.1507 -16.0241 6.2975 2.2759 -7.8578 4.7008 -0.0000 -0.0000 0.0000 -84.9974 21.0908 39.2686 49.9062 -52.9576 -26.0993 -0.0000 0.0000 -16.0053 7.9858 -23.1668 -3.1590 -7.1250 0.0000 -0.0000 -13.0995 7.1057 11.6963 -0.0000 -0.0000 0.0000 53.3107 9.8208 21.3899 -83.8793 59.8580 -54.7019 0.0000 -0.0000 -47.8799 -5.9338 -48.9082 4.4790 7.1250 -0.0000 -0.0000 57.4761 -71.8099 -40.2976
-0.3297 18.7909 5.3413 0.9641 15.6916 6.8895 0.0000 0.0000 0.0000 -14.2336 -14.0237 -12.2692 1.5655 7.8956 22.3973 0.7517 -2.7154 -15.6843 8.5098 -16.4817 -54.3788 0.0000 0.0000 0.0000 0.0000 0.0000 0.0000 0.0000 0.0000 0.0000 -0.0000 -0.0000 0.0000 -0.0000 -0.0000 0.0000 4.4528 5.9591 12.8605 2.3190 8.7172 0.4909 -1.5818 4.1629 -6.3514 -10.6128 -12.5610 -9.5562 6.1295 -16.0082 6.6310 2.2485 -7.8446 4.8553 -0.0000 -0.0000 0.0000 -84.7698 20.4222 39.8842 48.1685 -52.2296 -24.7189 -0.0000 0.0000 -15.6613 8.0477 -23.7379 -3.2576 -7.1250 0.0000 -0.0000 -13.0673 6.5413 11.8127 -0.0000 -0.0000 0.0000 53.5058 12.9386 22.0898 -71.1385 58.6122 -43.7416 0.0000 -0.0000 -46.3844 -3.6247 -50.3505 2.7924 7.1250 -0.0000 -0.0000 63.0590 -71.6583 -44.8402
